<svg xmlns="http://www.w3.org/2000/svg" id="Capa_1" data-name="Capa 1" viewBox="0 0 100 100"><defs><style>      .cls-1 {        fill: #fff;      }      .cls-2 {        stroke: #000;        stroke-miterlimit: 10;      }    </style></defs><circle class="cls-2" cx="50" cy="50" r="48"></circle><g><path class="cls-1" d="M64.02,67.87l-14.87-23.05s-4.04-6.46-10.07-6.46-8.94,5.25-8.94,5.25l-20.14,30.73,7.24.1,17.98-27.92c1.97-2.98,3.67-2.74,3.67-2.74,2.47-.06,4.05,2.36,4.05,2.36l1.29,1.95-17.26,26.49,7.24-.1,13.51-20.77,10.47,16.59c2.36,4.31,8.57,4.12,8.57,4.12,6.5,0,7.63-4.03,7.63-4.03-7.91,2.06-10.36-2.53-10.36-2.53"></path><path class="cls-1" d="M80.87,67.85c-2.62-3.86-25.7-39.52-25.7-39.52-2.36-3.28-7.34-2.91-7.34-2.91-6.77-.18-7.16,4.4-7.16,4.4,0,0,6.77-2.16,9.13,1.31,2.62,3.86,25.7,39.52,25.7,39.52,2.36,3.28,7.34,2.91,7.34,2.91,6.77.19,7.16-4.4,7.16-4.4,0,0-6.77,2.16-9.13-1.31"></path></g></svg>