<svg width="166" height="44" viewBox="0 0 166 44" fill="none" xmlns="http://www.w3.org/2000/svg">
<path opacity="0.7" d="M46.3363 36.9732C46.3363 36.9732 29.6806 30.3758 26.9539 29.0032C24.2301 27.628 4.84766 21.3066 4.84766 21.3066C4.84766 21.3066 9.69256 29.5527 20.8978 34.2254C37.0009 40.9418 46.3363 36.9732 46.3363 36.9732Z" fill="#388B8B"/>
<path opacity="0.9" d="M48.0244 36.4598C48.0244 36.4598 36.7019 23.5588 34.9967 21.1858C33.2999 18.8127 19.4238 5 19.4238 5C19.4238 5 19.4573 14.3453 26.9507 23.2296C37.729 36.0014 48.0244 36.4573 48.0244 36.4573V36.4598Z" fill="#356741"/>
<path opacity="0.5" d="M41.7929 24.0552C41.7929 24.0552 24.5343 13.5881 19.9852 11.1416C10.2954 5.91684 0 5.09375 0 5.09375C0 5.09375 6.36033 13.3399 15.1431 17.1843C24.311 21.201 41.7929 24.0527 41.7929 24.0527V24.0552Z" fill="#9FCC3B"/>
<path d="M54.3606 13.6666H45V10.7949H66.9014V13.6666H57.5408V38.3397H54.3581V13.6666H54.3606Z" fill="#333132"/>
<path d="M71.0982 9.61523H74.1644V21.5375C75.5201 19.3343 77.6689 17.5642 81.214 17.5642C86.1933 17.5642 89.0998 20.869 89.0998 25.706V38.3392H86.0311V26.4546C86.0311 22.6766 83.9608 20.3157 80.3347 20.3157C76.7085 20.3157 74.1618 22.8744 74.1618 26.6899V38.3392H71.0957V9.61523H71.0982Z" fill="#333132"/>
<path d="M93.2545 32.4351V32.355C93.2545 27.9862 96.8376 25.7029 102.058 25.7029C104.688 25.7029 106.517 26.0584 108.35 26.5692V25.9383C108.35 22.318 106.117 20.4278 102.258 20.4278C99.8302 20.4278 97.9145 21.0187 96.0039 21.8824L95.0866 19.4038C97.357 18.3824 99.549 17.6738 102.575 17.6738C105.6 17.6738 107.749 18.46 109.226 19.9146C110.658 21.3316 111.378 23.2995 111.378 25.8957V38.3312H108.35V35.2993C106.915 37.1119 104.564 38.7618 100.94 38.7618C97.0808 38.7618 93.252 36.5962 93.252 32.4276L93.2545 32.4351ZM108.388 30.8629V28.9726C106.875 28.5395 104.886 28.1089 102.374 28.1089C98.5531 28.1089 96.3612 29.7613 96.3612 32.2023V32.2824C96.3612 34.8386 98.7507 36.3333 101.536 36.3333C105.321 36.3333 108.388 34.0925 108.388 30.8654V30.8629Z" fill="#333132"/>
<path d="M116.92 10.1289H119.984V38.8529H116.92V10.1289Z" fill="#333132"/>
<path d="M135.228 36.6886C138.054 36.6886 140.045 35.547 141.72 33.8145L143.631 35.5069C141.558 37.7877 139.05 39.3249 135.15 39.3249C129.494 39.3249 124.877 35.0362 124.877 28.6996C124.877 22.796 129.056 18.0742 134.752 18.0742C140.846 18.0742 144.348 22.8737 144.348 28.8548C144.348 29.1302 144.348 29.4456 144.31 29.9188H127.981C128.419 34.205 131.605 36.6861 135.231 36.6861L135.228 36.6886ZM141.244 27.4803C140.884 23.78 138.733 20.6329 134.671 20.6329C131.128 20.6329 128.417 23.5446 127.979 27.4803H141.242H141.244Z" fill="#333132"/>
<path d="M147.072 36.2554L148.626 34.0923C150.856 35.7447 153.324 36.6911 155.751 36.6911C158.179 36.6911 160.016 35.4317 160.016 33.4639V33.3838C160.016 31.3358 157.588 30.5497 154.877 29.8036C151.654 28.8973 148.071 27.7957 148.071 24.0578V23.9802C148.071 20.4777 151.015 18.1543 155.077 18.1543C157.591 18.1543 160.376 19.0205 162.487 20.3975L161.09 22.6808C159.182 21.4616 156.99 20.7155 154.999 20.7155C152.571 20.7155 151.018 21.9723 151.018 23.6648V23.7449C151.018 25.6727 153.564 26.4187 156.311 27.2474C159.499 28.1913 162.925 29.4106 162.925 33.0683V33.1484C162.925 37.004 159.699 39.2447 155.597 39.2447C152.65 39.2447 149.386 38.1056 147.075 36.2554H147.072Z" fill="#333132"/>
<path opacity="0.9" d="M144.373 11.3008H124.879V13.842H144.373V11.3008Z" fill="#356741"/>
</svg>
