<svg id="Ebene_1" xmlns="http://www.w3.org/2000/svg" width="128" height="39" viewBox="0 0 128 39"><style>.st0{fill:#FF5200;}</style><path id="SVGID_1_" class="st0" d="M32.5 28.4zm-4-20.1s-.5 0-.5.5v19.6s0 .5.5.5H32s.5 0 .5-.5V8.8s0-.6-.5-.6h-3.5zm12.1 10.3c0-4.4 2.6-7.1 6-7.1 1.9 0 3.3.6 3.6.8v11.6c-.2.1-2 1.4-4.2 1.4-3 0-5.4-2.5-5.4-6.7m-4.7.2c0 5.4 3.2 10.2 9.1 10.2 3 0 4.9-1.3 5.2-1.4V29c0 2-.1 3.7-1.4 4.8-.8.7-2 1.2-3.9 1.2-2.9 0-5.3-1.4-6.1-1.9-.3-.2-.5.1-.5.1s-1.5 2.4-1.6 2.5c-.1.2 0 .4.1.4.8.7 3.8 2.7 8.6 2.7 3.7 0 5.9-1.1 7.3-2.6 2-2 2.1-4.2 2.1-7.4v-19c0-.2-.1-.3-.2-.3-1-.5-4.1-2-7.9-2-6.4.2-10.8 5.1-10.8 11.3m41.8-4.9c0 3.8 3.2 5.2 5.4 6.1 2.8 1.2 4.4 1.7 4.4 3.4 0 1.5-1.2 2.6-3.6 2.6-2.2 0-4.2-1-5.1-1.4-.3-.2-.5.1-.5.1L77 27.2s-.2.2.1.5c.8.5 3.5 2 7.3 2 4.6 0 7.8-2.4 7.8-6.5s-3.4-5.4-6.3-6.6c-2.1-.9-3.7-1.5-3.7-3 0-1.2 1-2.3 3.3-2.3 1.7 0 3.6.8 4.5 1.2.3.1.5-.1.5-.1l1.3-2.4s.2-.3-.1-.5c-.7-.5-2.9-1.7-6.4-1.7-4.5-.1-7.6 2.3-7.6 6.1m26.4-2.7c3.7 0 4.4 3.5 4.4 5.3h-9.7c.4-3.1 2.4-5.3 5.3-5.3m-9.8 7.6c0 6.1 3.6 10.8 10 10.8 3.8 0 6.5-1.5 7.3-2.1.2-.2.1-.5.1-.5s-1.3-2.1-1.5-2.4c-.2-.2-.4-.2-.5-.1-1 .5-2.8 1.3-5.1 1.3-4.3 0-5.9-3.2-5.9-5.8h13.6c.3 0 .4-.2.4-.3 0-.4.1-.8.1-1.3 0-6.6-3.2-10.7-8.9-10.7s-9.6 4.6-9.6 11.1m-32.6 3.7c0-.9.3-1.5.8-2.1 1.2-1.2 3.4-1.6 6.3-1.6h.9v5.4c-.3.2-2.1 1.4-4.5 1.4-1.9 0-3.5-1-3.5-3.1M58.8 9.8l1.2 2.3s.3.7.7.5c.8-.4 2.9-1.4 5.1-1.4 1.9 0 2.7.3 3.3.9.5.5.7 1.3.7 2.6v.8H69c-2.8 0-11.4.2-11.4 7.2 0 3.8 2.5 6.4 6.5 6.4 3.3 0 5.7-1.7 6-1.9v1.1c0 .6.5.6.7.6H74.2V16.1c0-2.7-.1-4.7-1.6-6.3-1.4-1.5-3.3-2.2-6.3-2.2-4.6 0-7.2 1.9-7.5 2.2m58.9-6.9c-.7 0-.7.6-.7.6v5.1h-1.8c-.7 0-.7.6-.7.6v2.6c0 .6.7.6.7.6h1.8v9.2c0 2.6-.1 4.6 1.5 6.2 1.2 1.2 3 1.7 4.9 1.7 1.9 0 3.3-.5 4.1-.9.7-.3.4-.8.4-.8l-.8-2.2s-.1-.5-.8-.3c-.5.2-1.2.3-2 .3-2.6 0-2.7-1.8-2.7-3.7v-9.6h3.6c.3 0 .7-.6.7-.6l1.3-2.6s.4-.6-.3-.6h-5.4v-5s0-.6-.7-.6h-3.1zM0 15.1c0 9.2 6 14.6 13.8 14.6 5.9 0 9.6-2.1 10.3-2.4V15.8s0-.5-.5-.5h-7.2s-.2 0-.3.2c-.4.6-1.9 2.9-2 3.1-.1.3.1.5.3.5h5.1v5.6c-.2.1-1.9.9-4.9.9C8.5 25.5 5 21.1 5 14.7 5 8.1 9.3 4.2 14.7 4.2c3.4 0 5.7 1.3 6.5 1.8.3.2.5-.1.5-.1l1.8-2.8s.2-.3-.1-.5c-1-.6-4-2.6-9-2.6C6.4 0 0 5.6 0 15.1"/></svg>